<mxfile host="app.diagrams.net" modified="2023-12-15T15:25:52.954Z" agent="Mozilla/5.0 (Windows NT 10.0; Win64; x64) AppleWebKit/537.36 (KHTML, like Gecko) Chrome/120.0.0.0 Safari/537.36" etag="YF7E-m_pYXq5GnsICQ-3" version="22.1.11" type="github">
  <diagram name="Страница — 1" id="l4CynedmgT5mSNE2ycqT">
    <mxGraphModel dx="2462" dy="943" grid="1" gridSize="10" guides="1" tooltips="1" connect="1" arrows="1" fold="1" page="1" pageScale="1" pageWidth="827" pageHeight="1169" math="0" shadow="0">
      <root>
        <mxCell id="0" />
        <mxCell id="1" parent="0" />
        <mxCell id="vt5EOtQezxyh5_LmL-ob-15" style="edgeStyle=orthogonalEdgeStyle;rounded=0;orthogonalLoop=1;jettySize=auto;html=1;entryX=0.5;entryY=0;entryDx=0;entryDy=0;" edge="1" parent="1" source="vt5EOtQezxyh5_LmL-ob-3" target="vt5EOtQezxyh5_LmL-ob-7">
          <mxGeometry relative="1" as="geometry" />
        </mxCell>
        <mxCell id="vt5EOtQezxyh5_LmL-ob-3" value="Роли" style="swimlane;fontStyle=0;childLayout=stackLayout;horizontal=1;startSize=26;fillColor=none;horizontalStack=0;resizeParent=1;resizeParentMax=0;resizeLast=0;collapsible=1;marginBottom=0;html=1;" vertex="1" parent="1">
          <mxGeometry x="380" y="40" width="140" height="52" as="geometry" />
        </mxCell>
        <mxCell id="vt5EOtQezxyh5_LmL-ob-14" style="edgeStyle=orthogonalEdgeStyle;rounded=0;orthogonalLoop=1;jettySize=auto;html=1;entryX=1;entryY=0.5;entryDx=0;entryDy=0;" edge="1" parent="1" source="vt5EOtQezxyh5_LmL-ob-7" target="vt5EOtQezxyh5_LmL-ob-10">
          <mxGeometry relative="1" as="geometry" />
        </mxCell>
        <mxCell id="vt5EOtQezxyh5_LmL-ob-19" style="edgeStyle=orthogonalEdgeStyle;rounded=0;orthogonalLoop=1;jettySize=auto;html=1;exitX=1;exitY=0.5;exitDx=0;exitDy=0;entryX=0;entryY=0.5;entryDx=0;entryDy=0;" edge="1" parent="1" source="vt5EOtQezxyh5_LmL-ob-7" target="vt5EOtQezxyh5_LmL-ob-18">
          <mxGeometry relative="1" as="geometry" />
        </mxCell>
        <mxCell id="vt5EOtQezxyh5_LmL-ob-7" value="Пользователи" style="swimlane;fontStyle=0;childLayout=stackLayout;horizontal=1;startSize=26;fillColor=none;horizontalStack=0;resizeParent=1;resizeParentMax=0;resizeLast=0;collapsible=1;marginBottom=0;html=1;" vertex="1" parent="1">
          <mxGeometry x="380" y="128" width="140" height="52" as="geometry" />
        </mxCell>
        <mxCell id="vt5EOtQezxyh5_LmL-ob-17" style="edgeStyle=orthogonalEdgeStyle;rounded=0;orthogonalLoop=1;jettySize=auto;html=1;entryX=0.5;entryY=1;entryDx=0;entryDy=0;" edge="1" parent="1" source="vt5EOtQezxyh5_LmL-ob-9" target="vt5EOtQezxyh5_LmL-ob-10">
          <mxGeometry relative="1" as="geometry" />
        </mxCell>
        <mxCell id="vt5EOtQezxyh5_LmL-ob-9" value="Товары" style="swimlane;fontStyle=0;childLayout=stackLayout;horizontal=1;startSize=26;fillColor=none;horizontalStack=0;resizeParent=1;resizeParentMax=0;resizeLast=0;collapsible=1;marginBottom=0;html=1;" vertex="1" parent="1">
          <mxGeometry x="130" y="290" width="140" height="52" as="geometry" />
        </mxCell>
        <mxCell id="vt5EOtQezxyh5_LmL-ob-10" value="Корзина" style="swimlane;fontStyle=0;childLayout=stackLayout;horizontal=1;startSize=26;fillColor=none;horizontalStack=0;resizeParent=1;resizeParentMax=0;resizeLast=0;collapsible=1;marginBottom=0;html=1;" vertex="1" parent="1">
          <mxGeometry x="130" y="130" width="140" height="50" as="geometry" />
        </mxCell>
        <mxCell id="vt5EOtQezxyh5_LmL-ob-18" value="Авторизация" style="swimlane;fontStyle=0;childLayout=stackLayout;horizontal=1;startSize=26;fillColor=none;horizontalStack=0;resizeParent=1;resizeParentMax=0;resizeLast=0;collapsible=1;marginBottom=0;html=1;" vertex="1" parent="1">
          <mxGeometry x="590" y="128" width="140" height="52" as="geometry" />
        </mxCell>
        <mxCell id="vt5EOtQezxyh5_LmL-ob-21" style="edgeStyle=orthogonalEdgeStyle;rounded=0;orthogonalLoop=1;jettySize=auto;html=1;entryX=0.5;entryY=1;entryDx=0;entryDy=0;" edge="1" parent="1" source="vt5EOtQezxyh5_LmL-ob-20" target="vt5EOtQezxyh5_LmL-ob-9">
          <mxGeometry relative="1" as="geometry" />
        </mxCell>
        <mxCell id="vt5EOtQezxyh5_LmL-ob-20" value="Категория" style="swimlane;fontStyle=0;childLayout=stackLayout;horizontal=1;startSize=26;fillColor=none;horizontalStack=0;resizeParent=1;resizeParentMax=0;resizeLast=0;collapsible=1;marginBottom=0;html=1;" vertex="1" parent="1">
          <mxGeometry x="130" y="390" width="140" height="52" as="geometry" />
        </mxCell>
      </root>
    </mxGraphModel>
  </diagram>
</mxfile>
